<svg width="106" height="31" viewBox="0 0 106 31" fill="none" xmlns="http://www.w3.org/2000/svg">
<path fill-rule="evenodd" clip-rule="evenodd" d="M12.088 6.14763C12.5903 3.04067 15.2833 0.66394 18.5345 0.66394C22.1438 0.66394 25.0693 3.58951 25.0693 7.20344C25.0693 10.8127 22.1438 13.7383 18.5345 13.7383C15.767 13.7383 13.4043 12.0127 12.4508 9.58018L0.208984 10.7011V7.19879L12.088 6.14763ZM13.7298 7.19879C13.7298 9.84994 15.8833 12.0034 18.5345 12.0034C21.1856 12.0034 23.3391 9.84994 23.3391 7.19879C23.3391 4.54764 21.1856 2.39416 18.5345 2.39416C15.8833 2.39416 13.7298 4.54764 13.7298 7.19879ZM16.5852 5.88695C15.6689 6.58462 14.9387 7.9195 14.9387 7.9195C14.9387 7.9195 14.7155 5.60323 16.0736 4.51021C17.1899 3.60789 18.4736 3.59393 18.4736 3.59393V5.17998C18.4736 5.17998 17.6131 5.10091 16.5852 5.88695ZM21.7988 14.9943L21.8081 19.3943C21.7058 24.5291 17.5198 28.6547 12.3709 28.6547C7.21748 28.6547 3.03145 24.5245 2.93378 19.3943L2.92448 17.6315L1.13379 16.864V19.3943C1.13379 25.6175 6.18027 30.664 12.3988 30.664C18.6174 30.664 23.6639 25.6175 23.6639 19.3943V13.6454C23.6639 13.6454 23.0732 14.1524 22.7011 14.4222C22.329 14.692 21.7988 14.9943 21.7988 14.9943ZM3.0699 14.7104L4.8792 15.1429H11.5954V15.9988H13.428V15.1429H20.1442V16.236C20.1442 18.2313 18.6419 19.8499 16.7861 19.8499C15.2187 19.8499 13.9024 18.6918 13.535 17.129H11.4838C11.1164 18.6871 9.8001 19.8499 8.23267 19.8499C6.37686 19.8499 4.87454 18.2313 4.87454 16.236V16.5476L1.21875 15.1429V12.1802L3.0513 12.022L3.0699 14.7104ZM6.00477 16.2732C6.02338 17.6267 7.01872 18.7197 8.23732 18.7197C9.45592 18.7197 10.4513 17.6267 10.4652 16.2732H6.00477ZM16.7861 18.7197C18.0094 18.7197 19.0001 17.6267 19.0187 16.2732H14.5582C14.5722 17.6267 15.5675 18.7197 16.7861 18.7197Z" fill="#8AD223"/>
<path fill-rule="evenodd" clip-rule="evenodd" d="M32.2512 27.6455C32.5024 27.7059 33.2698 27.7896 33.9582 27.7896C36.414 27.7896 37.3349 26.9106 37.3349 24.185V11.4688H34.5628V24.185C34.5628 25.371 34.4186 25.7059 33.4373 25.7059C32.9814 25.7059 32.5861 25.7059 32.2512 25.6827V27.6455ZM34.5396 7.00836V9.65486H37.3721V7.00836H34.5396ZM73.4785 18.4082V18.1989H81.3296V17.2827C81.3296 13.7199 79.9576 11.1757 76.0413 11.1757C72.5436 11.1757 70.7483 13.092 70.7483 17.0315V17.7664C70.7483 21.8966 72.246 23.5198 76.4785 23.5198C78.4366 23.5198 79.9622 23.2268 80.832 23.0175V20.9524C79.2924 21.0966 77.832 21.2222 76.6041 21.2222C73.7297 21.2222 73.4785 20.1199 73.4785 18.4082ZM76.0413 13.3897C78.3157 13.3897 78.5855 14.8687 78.5855 16.2222V16.4082H73.4971V16.2222C73.4971 14.8873 73.832 13.3897 76.0413 13.3897ZM65.5291 23.2035V15.5151C65.5291 14.2221 65.5058 13.4733 64.05 13.4733C63.3802 13.4733 62.4268 13.7431 61.6128 14.1849C61.6733 14.6407 61.6733 15.1012 61.6733 15.5151V23.2035H58.9245V15.5151C58.9245 14.2035 58.9012 13.4733 57.5663 13.4733C56.7105 13.4733 55.7524 13.6407 55.0454 13.9942V23.2035H52.3152V12.6082C52.3152 12.6082 53.7663 11.2361 58.2919 11.1803C59.6872 11.1617 60.6361 11.5849 61.1151 12.3756C62.45 11.4593 63.6779 11.1803 64.7616 11.1803C68.0779 11.1803 68.2825 13.371 68.2825 15.4733V23.2035H65.5291ZM91.0687 11.413V7.00836L93.8269 7.49208V16.9664V17.1478V23.1897C91.7152 23.4408 90.6501 23.5245 89.1059 23.5245C85.4316 23.5245 83.5525 21.9618 83.5525 17.9943V16.6083C83.5525 12.4734 85.6222 11.1804 88.6269 11.1804C89.5013 11.1804 90.2734 11.2642 91.0687 11.413ZM91.0873 21.092V17.1478H91.092V16.9711V13.692C90.2966 13.5665 89.4408 13.4827 88.9013 13.4827C87.2269 13.4827 86.3106 13.9618 86.3106 16.613V18.0036C86.3106 20.4641 87.1432 21.1757 89.0641 21.1757C89.6673 21.1757 90.1989 21.1434 90.6197 21.1178L90.6199 21.1178L90.6203 21.1177C90.7963 21.107 90.9529 21.0975 91.0873 21.092ZM100.27 23.5152C98.0836 23.4966 96.3069 22.4315 96.3069 20.1571V19.7199C96.3069 16.5943 98.558 16.1757 101.851 16.1757H103.246V15.4501C103.246 13.785 102.893 13.4501 100.809 13.4501C99.6418 13.4501 98.4138 13.5338 97.1208 13.678V11.8222C97.6185 11.6129 99.372 11.1757 101.27 11.1757C105.018 11.1757 106 12.4455 106 15.4501V23.185C106 23.185 103.837 23.5477 100.27 23.5152ZM103.311 17.8641H101.856C99.8325 17.8641 98.9813 18.092 98.9813 19.6361V20.1338C98.9813 21.2175 100.028 21.5105 101.009 21.5105C101.698 21.5105 102.707 21.4826 103.316 21.3989V17.8641H103.311ZM39.8552 20.1571C39.8552 22.4315 41.632 23.4966 43.818 23.5152C47.3854 23.5477 49.5482 23.185 49.5482 23.185V15.4501C49.5482 12.4455 48.5715 11.1757 44.818 11.1757C42.9203 11.1757 41.1715 11.6129 40.6692 11.8222V13.678C41.9622 13.5338 43.1901 13.4501 44.3575 13.4501C46.4412 13.4501 46.7947 13.785 46.7947 15.4501V16.1757H45.3994C42.1064 16.1757 39.8552 16.5943 39.8552 19.7199V20.1571ZM45.3994 17.8641H46.8598V21.3989C46.2505 21.4826 45.2412 21.5105 44.5529 21.5105C43.5715 21.5105 42.525 21.2175 42.525 20.1338V19.6361C42.525 18.092 43.3761 17.8641 45.3994 17.8641Z" fill="#01A3D4"/>
</svg>
